<svg width="16" height="16" viewBox="0 0 16 16" fill="none" xmlns="http://www.w3.org/2000/svg">
<path fill-rule="evenodd" clip-rule="evenodd" d="M11.7587 4.23697C11.704 4.23697 11.654 4.20501 11.6067 4.10578C11.4174 3.7042 11.1854 3.21339 11.046 2.93901C10.7407 2.33831 10.2167 2.00466 9.56537 2H6.43071C5.78404 2.00466 5.25937 2.33831 4.95404 2.93967C4.81871 3.20606 4.59537 3.67889 4.40937 4.07381L4.37004 4.15639C4.34671 4.20567 4.29737 4.23697 4.24204 4.23697C2.63804 4.23697 1.33337 5.54026 1.33337 7.14191V11.0951C1.33337 12.6967 2.63804 14 4.24204 14H4.73871C5.01471 14 5.23871 13.7762 5.23871 13.5005C5.23871 13.2248 5.01471 13.0011 4.73871 13.0011H4.24204C3.18937 13.0011 2.33337 12.146 2.33337 11.0951V7.14191C2.33337 6.09102 3.18937 5.23592 4.24204 5.23592C4.68137 5.23592 5.08671 4.97952 5.27404 4.58327L5.31337 4.50003C5.49537 4.11377 5.71404 3.65159 5.84604 3.3912C5.98271 3.12215 6.16604 3.00094 6.43537 2.99895H9.56137C9.83471 3.00094 10.0174 3.12215 10.154 3.39053C10.29 3.65958 10.5174 4.13974 10.7267 4.58327C10.914 4.97952 11.3194 5.23592 11.7587 5.23592C12.8107 5.23592 13.6667 6.09102 13.6667 7.14191V11.0951C13.6667 12.146 12.8107 13.0011 11.7587 13.0011H7.05337C6.77737 13.0011 6.55337 13.2248 6.55337 13.5005C6.55337 13.7762 6.77737 14 7.05337 14H11.7587C13.362 14 14.6667 12.6967 14.6667 11.0951V7.14191C14.6667 5.54026 13.362 4.23697 11.7587 4.23697ZM8.00057 11.5027C8.70124 11.5027 9.36124 11.227 9.85924 10.7262C10.3546 10.228 10.6252 9.57274 10.6192 8.8848C10.6199 8.18687 10.3466 7.52823 9.84991 7.03209C9.35391 6.53661 8.69724 6.26423 8.00057 6.26423H7.99924C7.80724 6.26423 7.61524 6.28488 7.42924 6.3275C7.15991 6.38677 6.98991 6.65449 7.05057 6.92354C7.11057 7.19192 7.37724 7.36374 7.64724 7.30114C7.76257 7.27583 7.88057 7.26318 7.99991 7.26318H8.00057C8.43057 7.26318 8.83591 7.43233 9.14257 7.73868C9.45057 8.04635 9.61991 8.45259 9.61924 8.88813C9.62257 9.31168 9.45591 9.71392 9.14991 10.0223C8.84124 10.3326 8.43257 10.5038 8.00057 10.5038H7.99924C7.56724 10.5031 7.16124 10.3339 6.85524 10.0269C6.54857 9.71992 6.38057 9.31301 6.38124 8.88014C6.38124 8.71431 6.40724 8.54982 6.45791 8.39199C6.54124 8.1296 6.39591 7.84856 6.13257 7.76465C5.86791 7.68207 5.58791 7.82592 5.50457 8.08897C5.42324 8.34537 5.38124 8.61042 5.38124 8.87947C5.37991 9.5774 5.65191 10.236 6.14657 10.7322C6.64124 11.2283 7.29857 11.502 7.99791 11.5027H8.00057ZM11.9868 7.16808C11.9401 7.2147 11.8868 7.25465 11.8268 7.28129C11.7668 7.30793 11.7001 7.31526 11.6334 7.31526C11.5068 7.31526 11.3801 7.26797 11.2801 7.16808C11.1868 7.07484 11.1334 6.94831 11.1334 6.81578C11.1334 6.75518 11.1468 6.68858 11.1734 6.62931C11.2001 6.56938 11.2401 6.50944 11.2801 6.46282C11.3268 6.4222 11.3868 6.38224 11.4468 6.3556C11.5668 6.30898 11.7068 6.30898 11.8268 6.3556C11.8868 6.38224 11.9468 6.4222 11.9868 6.46282C12.0334 6.50944 12.0734 6.56938 12.1001 6.62931C12.1268 6.68858 12.1401 6.75518 12.1401 6.81578C12.1401 6.94831 12.0868 7.07484 11.9868 7.16808Z" fill="#5956E9"/>
</svg>
