<svg width="16" height="17" viewBox="0 0 16 17" fill="none" xmlns="http://www.w3.org/2000/svg">
<path d="M2.58352 8.49935H8.33352V9.45768H2.58352V8.49935ZM1.62518 6.10352H6.41685V7.06185H1.62518V6.10352Z" fill="#404E67"/>
<path d="M15.0027 8.79005L13.5652 5.43588C13.5283 5.34967 13.4669 5.27619 13.3886 5.22457C13.3104 5.17295 13.2186 5.14546 13.1249 5.14551H11.6874V4.18717C11.6874 4.06009 11.6369 3.93821 11.547 3.84835C11.4572 3.75849 11.3353 3.70801 11.2082 3.70801H3.54152V4.66634H10.729V10.6828C10.5107 10.8095 10.3196 10.9783 10.1668 11.1793C10.014 11.3803 9.9025 11.6095 9.83873 11.8538H6.82765C6.71102 11.4022 6.43366 11.0085 6.04756 10.7467C5.66146 10.4849 5.19312 10.3728 4.73033 10.4316C4.26755 10.4904 3.84209 10.7159 3.5337 11.066C3.22531 11.416 3.05518 11.8665 3.05518 12.333C3.05518 12.7995 3.22531 13.25 3.5337 13.6C3.84209 13.9501 4.26755 14.1756 4.73033 14.2344C5.19312 14.2932 5.66146 14.1812 6.04756 13.9193C6.43366 13.6575 6.71102 13.2639 6.82765 12.8122H9.83873C9.94297 13.2234 10.1813 13.5882 10.5162 13.8487C10.851 14.1092 11.2631 14.2507 11.6874 14.2507C12.1116 14.2507 12.5237 14.1092 12.8585 13.8487C13.1934 13.5882 13.4317 13.2234 13.536 12.8122H14.5624C14.6894 12.8122 14.8113 12.7617 14.9012 12.6718C14.991 12.582 15.0415 12.4601 15.0415 12.333V8.97884C15.0415 8.91393 15.0283 8.84969 15.0027 8.79005ZM4.97902 13.2913C4.78948 13.2913 4.6042 13.2351 4.4466 13.1298C4.289 13.0245 4.16617 12.8749 4.09364 12.6997C4.0211 12.5246 4.00213 12.3319 4.0391 12.146C4.07608 11.9601 4.16735 11.7894 4.30138 11.6554C4.4354 11.5213 4.60616 11.4301 4.79206 11.3931C4.97796 11.3561 5.17065 11.3751 5.34576 11.4476C5.52087 11.5202 5.67054 11.643 5.77585 11.8006C5.88115 11.9582 5.93736 12.1435 5.93736 12.333C5.9371 12.5871 5.83605 12.8307 5.65639 13.0104C5.47672 13.19 5.23311 13.2911 4.97902 13.2913ZM11.6874 6.10384H12.8086L13.8359 8.49967H11.6874V6.10384ZM11.6874 13.2913C11.4978 13.2913 11.3125 13.2351 11.1549 13.1298C10.9973 13.0245 10.8745 12.8749 10.802 12.6997C10.7294 12.5246 10.7105 12.3319 10.7474 12.146C10.7844 11.9601 10.8757 11.7894 11.0097 11.6554C11.1437 11.5213 11.3145 11.4301 11.5004 11.3931C11.6863 11.3561 11.879 11.3751 12.0541 11.4476C12.2292 11.5202 12.3789 11.643 12.4842 11.8006C12.5895 11.9582 12.6457 12.1435 12.6457 12.333C12.6454 12.5871 12.5444 12.8307 12.3647 13.0104C12.1851 13.19 11.9414 13.2911 11.6874 13.2913ZM14.0832 11.8538H13.536C13.4304 11.4434 13.1917 11.0796 12.8571 10.8194C12.5226 10.5593 12.1111 10.4175 11.6874 10.4163V9.45801H14.0832V11.8538Z" fill="#404E67"/>
</svg>
