<svg width="32" height="32" viewBox="0 0 32 32" fill="none" xmlns="http://www.w3.org/2000/svg">
<path fill-rule="evenodd" clip-rule="evenodd" d="M15.9466 1.66699H16.0533C17.3586 1.66699 18.4146 1.66699 19.2666 1.75499C20.1493 1.84566 20.916 2.03899 21.604 2.49366C22.0013 2.75499 22.36 3.07233 22.668 3.43633C23.2 4.06566 23.4826 4.80299 23.6786 5.66966C23.868 6.50433 23.9933 7.55366 24.1493 8.84833L24.2853 9.98566C24.4453 11.315 24.5773 12.4163 24.56 13.295C24.5413 14.2177 24.3586 15.067 23.7373 15.767C23.116 16.4683 22.2946 16.751 21.38 16.879C20.5106 17.0003 19.4013 17.0003 18.0626 17.0003H17V18.3337H22.6666C23.0946 18.3337 23.496 18.4483 23.84 18.6497L24.2133 17.5337C24.2894 17.2869 24.3807 17.0451 24.4866 16.8097C24.6013 16.563 24.66 16.4657 24.7506 16.315C25.1306 15.6897 25.6266 15.147 26.428 14.795C27.1826 14.4617 28.1266 14.3337 29.3333 14.3337C29.5985 14.3337 29.8529 14.439 30.0404 14.6266C30.2279 14.8141 30.3333 15.0684 30.3333 15.3337C30.3333 15.5989 30.2279 15.8532 30.0404 16.0408C29.8529 16.2283 29.5985 16.3337 29.3333 16.3337C28.2306 16.3337 27.6133 16.4563 27.2346 16.6243C26.9026 16.771 26.688 16.9777 26.46 17.3537C26.42 17.4203 26.4026 17.4483 26.3853 17.4817C26.3555 17.5372 26.3275 17.5937 26.3013 17.651C26.2346 17.7977 26.2013 17.891 26.1013 18.1897L24.9493 21.6497C24.9073 21.7753 24.8407 21.8914 24.7533 21.991C24.486 22.6808 24.0163 23.2737 23.406 23.6918C22.7956 24.1099 22.0731 24.3336 21.3333 24.3337H17V25.8883C17.7609 26.1023 18.4577 26.4995 19.0297 27.045C19.6018 27.5905 20.0315 28.2678 20.2813 29.0177C20.3537 29.266 20.3271 29.5327 20.2071 29.7618C20.087 29.9909 19.8829 30.1646 19.6375 30.2463C19.3921 30.3281 19.1246 30.3117 18.8911 30.2004C18.6576 30.0892 18.4763 29.8917 18.3853 29.6497C18.1517 28.9498 17.6548 28.3683 17 28.0283V29.3337C17 29.5989 16.8946 29.8532 16.7071 30.0408C16.5195 30.2283 16.2652 30.3337 16 30.3337C15.7347 30.3337 15.4804 30.2283 15.2929 30.0408C15.1053 29.8532 15 29.5989 15 29.3337V28.027C14.3448 28.3673 13.848 28.9493 13.6146 29.6497C13.5282 29.898 13.3475 30.1023 13.1116 30.2184C12.8757 30.3344 12.6036 30.3529 12.3541 30.2698C12.1047 30.1867 11.898 30.0088 11.7788 29.7744C11.6596 29.54 11.6375 29.2682 11.7173 29.0177C11.9673 28.2676 12.3972 27.5902 12.9694 27.0447C13.5417 26.4992 14.2388 26.1022 15 25.8883V24.3337H10.6666C9.92681 24.3336 9.2043 24.1099 8.59395 23.6918C7.9836 23.2737 7.51394 22.6808 7.24663 21.991C7.15927 21.8914 7.09264 21.7753 7.05063 21.6497L5.89729 18.1897C5.84197 18.0061 5.77517 17.8262 5.69729 17.651C5.65048 17.549 5.59795 17.4497 5.53996 17.3537C5.31196 16.9777 5.09729 16.771 4.76529 16.6243C4.38529 16.4563 3.76929 16.3337 2.66663 16.3337C2.40141 16.3337 2.14706 16.2283 1.95952 16.0408C1.77198 15.8532 1.66663 15.5989 1.66663 15.3337C1.66663 15.0684 1.77198 14.8141 1.95952 14.6266C2.14706 14.439 2.40141 14.3337 2.66663 14.3337C3.87329 14.3337 4.81729 14.4603 5.57329 14.7937C6.37329 15.147 6.86929 15.6897 7.24929 16.3137C7.33996 16.4657 7.39863 16.563 7.51329 16.8097C7.63063 17.0657 7.69596 17.259 7.78796 17.5337L8.15996 18.6497C8.50396 18.4497 8.90529 18.3337 9.33329 18.3337H15V17.0003H13.9373C12.5986 17.0003 11.4893 17.0003 10.62 16.879C9.70529 16.751 8.88396 16.467 8.26263 15.767C7.64129 15.067 7.45863 14.2177 7.43996 13.295C7.42263 12.4163 7.55463 11.315 7.71463 9.98566L7.85063 8.84833C8.00663 7.55366 8.13196 6.50433 8.32129 5.66966C8.51729 4.80299 8.79996 4.06566 9.33196 3.43633C9.63996 3.07233 9.99863 2.75633 10.396 2.49366C11.084 2.04033 11.8493 1.84566 12.7333 1.75499C13.5853 1.66699 14.6413 1.66699 15.9466 1.66699ZM21.3333 22.3337C22.2533 22.3337 23 21.587 23 20.667C23 20.5786 22.9648 20.4938 22.9023 20.4313C22.8398 20.3688 22.755 20.3337 22.6666 20.3337H9.33329C9.24489 20.3337 9.1601 20.3688 9.09759 20.4313C9.03508 20.4938 8.99996 20.5786 8.99996 20.667C8.99996 21.587 9.74663 22.3337 10.6666 22.3337H21.3333ZM12.9386 3.74433C12.22 3.81899 11.8106 3.95499 11.4973 4.16299C11.2586 4.32006 11.0435 4.51042 10.8586 4.72833C10.616 5.01633 10.432 5.40566 10.272 6.10966C10.108 6.83366 9.99329 7.77899 9.83063 9.14033L9.70929 10.151C9.53863 11.5723 9.42529 12.5337 9.43996 13.2537C9.45329 13.947 9.58529 14.2417 9.75996 14.439C9.93329 14.635 10.2106 14.8003 10.8973 14.8963C11.612 14.9963 12.58 14.999 14.012 14.999H17.988C19.42 14.999 20.388 14.9963 21.1026 14.8963C21.7893 14.8003 22.0666 14.635 22.2413 14.439C22.4146 14.2417 22.5466 13.9457 22.5613 13.2537C22.5746 12.5323 22.4613 11.571 22.2906 10.1497L22.1706 9.13899C22.0066 7.77766 21.8906 6.83232 21.728 6.10833C21.568 5.40433 21.384 5.01499 21.1413 4.72699C20.9564 4.50907 20.7414 4.31869 20.5026 4.16166C20.1893 3.95366 19.78 3.81766 19.0613 3.74299C18.324 3.66699 17.372 3.66566 16 3.66566C14.628 3.66566 13.676 3.66566 12.9386 3.74299" fill="#5956E9"/>
</svg>
