<svg width="28" height="28" viewBox="0 0 28 28" fill="none" xmlns="http://www.w3.org/2000/svg">
<path d="M6.5333 23.0414H4.66667C3.54667 23.0414 2.625 22.1197 2.625 20.9997V10.943C2.625 9.82303 3.54667 8.90137 4.66667 8.90137H6.5333C7.6533 8.90137 8.57497 9.82303 8.57497 10.943V20.9997C8.57497 22.1197 7.6533 23.0414 6.5333 23.0414ZM4.66667 10.6397C4.50333 10.6397 4.375 10.768 4.375 10.9314V20.9997C4.375 21.163 4.50333 21.2914 4.66667 21.2914H6.5333C6.69664 21.2914 6.82497 21.163 6.82497 20.9997V10.943C6.82497 10.7797 6.69664 10.6514 6.5333 10.6514H4.66667V10.6397Z" fill="#5956E9"/>
<path d="M14.9336 23.0414H13.0669C11.9469 23.0414 11.0253 22.1197 11.0253 20.9997V7.22135C11.0253 6.10135 11.9469 5.17969 13.0669 5.17969H14.9336C16.0536 5.17969 16.9752 6.10135 16.9752 7.22135V20.9997C16.9752 22.1197 16.0536 23.0414 14.9336 23.0414ZM13.0669 6.92969C12.9036 6.92969 12.7753 7.05802 12.7753 7.22135V20.9997C12.7753 21.163 12.9036 21.2914 13.0669 21.2914H14.9336C15.0969 21.2914 15.2252 21.163 15.2252 20.9997V7.22135C15.2252 7.05802 15.0969 6.92969 14.9336 6.92969H13.0669Z" fill="#5956E9"/>
<path d="M23.3332 23.0413H21.4666C20.3466 23.0413 19.4249 22.1197 19.4249 20.9997V3.49967C19.4249 2.37967 20.3466 1.45801 21.4666 1.45801H23.3332C24.4532 1.45801 25.3749 2.37967 25.3749 3.49967V20.9997C25.3749 22.1197 24.4532 23.0413 23.3332 23.0413ZM21.4666 3.20801C21.3033 3.20801 21.1749 3.33634 21.1749 3.49967V20.9997C21.1749 21.163 21.3033 21.2913 21.4666 21.2913H23.3332C23.4966 21.2913 23.6249 21.163 23.6249 20.9997V3.49967C23.6249 3.33634 23.4966 3.20801 23.3332 3.20801H21.4666Z" fill="#5956E9"/>
</svg>
