<svg width="24" height="24" viewBox="0 0 24 24" fill="none" xmlns="http://www.w3.org/2000/svg">
<path d="M18 2H10.83C10.3 2 9.79 2.21 9.41 2.59L4.59 7.41C4.21 7.79 4 8.3 4 8.83V20C4 21.1 4.9 22 6 22H18C19.1 22 20 21.1 20 20V4C20 2.9 19.1 2 18 2ZM11.65 16.65L8.86 13.86C8.54 13.54 8.76 13 9.21 13H11V10.01C11 9.74651 11.104 9.49366 11.2893 9.30641C11.4747 9.11915 11.7265 9.01264 11.99 9.01C12.1224 9.00773 12.254 9.03197 12.3769 9.0813C12.4998 9.13062 12.6116 9.20403 12.7057 9.29721C12.7998 9.39039 12.8743 9.50146 12.9249 9.62387C12.9754 9.74628 13.001 9.87757 13 10.01V13H14.79C15.24 13 15.46 13.54 15.14 13.85L12.35 16.64C12.16 16.84 11.84 16.84 11.65 16.65Z" fill="white"/>
</svg>
