<svg width="24" height="24" viewBox="0 0 24 24" fill="none" xmlns="http://www.w3.org/2000/svg">
<path fill-rule="evenodd" clip-rule="evenodd" d="M21.21 7.899V16.05C21.21 19.07 19.32 21.2 16.3 21.2H7.65C4.63 21.2 2.75 19.07 2.75 16.05V7.899C2.75 4.879 4.64 2.75 7.65 2.75H16.3C19.32 2.75 21.21 4.879 21.21 7.899Z" stroke="#121313" stroke-width="1.5" stroke-linecap="round" stroke-linejoin="round"/>
<path d="M5.28125 16.4303L6.80925 14.8173C7.34025 14.2543 8.22525 14.2273 8.78925 14.7573C8.80625 14.7743 9.72625 15.7093 9.72625 15.7093C10.2813 16.2743 11.1883 16.2833 11.7533 15.7293C11.7903 15.6933 14.0872 12.9073 14.0872 12.9073C14.6792 12.1883 15.7422 12.0853 16.4622 12.6783C16.5102 12.7183 18.6803 14.9453 18.6803 14.9453" stroke="#121313" stroke-width="1.5" stroke-linecap="round" stroke-linejoin="round"/>
<path fill-rule="evenodd" clip-rule="evenodd" d="M10.3126 9.13291C10.3126 10.1019 9.52757 10.8869 8.55857 10.8869C7.58957 10.8869 6.80457 10.1019 6.80457 9.13291C6.80457 8.16391 7.58957 7.37891 8.55857 7.37891C9.52757 7.37991 10.3126 8.16391 10.3126 9.13291Z" stroke="#121313" stroke-width="1.5" stroke-linecap="round" stroke-linejoin="round"/>
</svg>
