<svg width="28" height="28" viewBox="0 0 28 28" fill="none" xmlns="http://www.w3.org/2000/svg">
<path d="M14 26.6113C13.195 26.6113 12.4367 26.203 11.9 25.4913L10.15 23.158C10.115 23.1113 9.97504 23.053 9.91671 23.0413H9.33337C4.46837 23.0413 1.45837 21.723 1.45837 15.1663V9.33301C1.45837 4.17634 4.17671 1.45801 9.33337 1.45801H18.6667C23.8234 1.45801 26.5417 4.17634 26.5417 9.33301V15.1663C26.5417 20.323 23.8234 23.0413 18.6667 23.0413H18.0834C17.99 23.0413 17.9084 23.088 17.85 23.158L16.1 25.4913C15.5634 26.203 14.805 26.6113 14 26.6113ZM9.33337 3.20801C5.15671 3.20801 3.20837 5.15634 3.20837 9.33301V15.1663C3.20837 20.4397 5.01671 21.2913 9.33337 21.2913H9.91671C10.5117 21.2913 11.1884 21.6297 11.55 22.108L13.3 24.4413C13.7084 24.978 14.2917 24.978 14.7 24.4413L16.45 22.108C16.835 21.5947 17.4417 21.2913 18.0834 21.2913H18.6667C22.8434 21.2913 24.7917 19.343 24.7917 15.1663V9.33301C24.7917 5.15634 22.8434 3.20801 18.6667 3.20801H9.33337Z" fill="#5956E9"/>
<path d="M14 14.0003C13.3467 14.0003 12.8334 13.4753 12.8334 12.8337C12.8334 12.192 13.3584 11.667 14 11.667C14.6417 11.667 15.1667 12.192 15.1667 12.8337C15.1667 13.4753 14.6534 14.0003 14 14.0003Z" fill="#5956E9"/>
<path d="M18.6667 14.0003C18.0133 14.0003 17.5 13.4753 17.5 12.8337C17.5 12.192 18.025 11.667 18.6667 11.667C19.3083 11.667 19.8333 12.192 19.8333 12.8337C19.8333 13.4753 19.32 14.0003 18.6667 14.0003Z" fill="#5956E9"/>
<path d="M9.33329 14.0003C8.67996 14.0003 8.16663 13.4753 8.16663 12.8337C8.16663 12.192 8.69163 11.667 9.33329 11.667C9.97496 11.667 10.5 12.192 10.5 12.8337C10.5 13.4753 9.98663 14.0003 9.33329 14.0003Z" fill="#5956E9"/>
</svg>
