<svg width="26" height="29" viewBox="0 0 26 29" fill="none" xmlns="http://www.w3.org/2000/svg">
<path d="M26 21.025C26 21.576 25.6967 22.0545 25.2344 22.301L13.8233 28.739C13.5922 28.913 13.3033 29 13 29C12.6967 29 12.4078 28.913 12.1767 28.739L0.765561 22.301C0.533987 22.1788 0.34019 21.9953 0.205222 21.7704C0.0702549 21.5454 -0.000721024 21.2876 5.52246e-06 21.025V7.975C5.52246e-06 7.424 0.303339 6.9455 0.765561 6.699L12.1767 0.261C12.4078 0.0870001 12.6967 0 13 0C13.3033 0 13.5922 0.0870001 13.8233 0.261L25.2344 6.699C25.6967 6.9455 26 7.424 26 7.975V21.025ZM2.88889 10.15V18.85H4.69445V15.95H5.77778C6.54396 15.95 7.27876 15.6445 7.82053 15.1006C8.36231 14.5568 8.66667 13.8191 8.66667 13.05C8.66667 12.2809 8.36231 11.5432 7.82053 10.9994C7.27876 10.4555 6.54396 10.15 5.77778 10.15H2.88889ZM4.69445 14.5V11.6H5.41667C5.79976 11.6 6.16716 11.7528 6.43805 12.0247C6.70893 12.2966 6.86112 12.6654 6.86112 13.05C6.86112 13.4346 6.70893 13.8034 6.43805 14.0753C6.16716 14.3472 5.79976 14.5 5.41667 14.5H4.69445ZM9.75 10.15V18.85H11.5556V15.95H12.6389L13.5922 18.85H15.4989L14.3578 15.3845C15.0656 14.8625 15.5278 14.007 15.5278 13.05C15.5278 12.2809 15.2234 11.5432 14.6816 10.9994C14.1399 10.4555 13.4051 10.15 12.6389 10.15H9.75ZM11.5556 14.5V11.6H12.2778C12.6609 11.6 13.0283 11.7528 13.2992 12.0247C13.57 12.2966 13.7222 12.6654 13.7222 13.05C13.7222 13.4346 13.57 13.8034 13.2992 14.0753C13.0283 14.3472 12.6609 14.5 12.2778 14.5H11.5556ZM20.2222 10.15C18.2289 10.15 16.6111 12.093 16.6111 14.5C16.6111 16.907 18.2289 18.85 20.2222 18.85C22.2156 18.85 23.8333 16.907 23.8333 14.5C23.8333 12.093 22.2156 10.15 20.2222 10.15ZM20.2222 11.9625C21.32 11.9625 22.2156 13.0935 22.2156 14.5C22.2156 15.9065 21.32 17.0375 20.2222 17.0375C19.1244 17.0375 18.2433 15.9065 18.2433 14.5C18.2433 13.0935 19.1244 11.9625 20.2222 11.9625Z" fill="#5956E9"/>
</svg>
