<svg width="24" height="24" viewBox="0 0 24 24" fill="none" xmlns="http://www.w3.org/2000/svg">
<path d="M9.02992 13.9999C8.63992 13.4299 8.41992 12.7399 8.41992 11.9999C8.41992 10.0199 10.0199 8.41992 11.9999 8.41992C13.9799 8.41992 15.5799 10.0199 15.5799 11.9999C15.5799 13.9799 13.9799 15.5799 11.9999 15.5799" stroke="#292D32" stroke-width="1.5" stroke-linecap="round" stroke-linejoin="round"/>
<path d="M17.5601 5.57998C15.8701 4.37998 13.9701 3.72998 12.0001 3.72998C8.47009 3.72998 5.18009 5.80998 2.89009 9.40998C1.99009 10.82 1.99009 13.19 2.89009 14.6C5.18009 18.2 8.47009 20.28 12.0001 20.28C15.5301 20.28 18.8201 18.2 21.1101 14.6C22.0101 13.19 22.0101 10.82 21.1101 9.40998" stroke="#292D32" stroke-width="1.5" stroke-linecap="round" stroke-linejoin="round"/>
</svg>
