<svg width="28" height="28" viewBox="0 0 28 28" fill="none" xmlns="http://www.w3.org/2000/svg">
<path d="M17.78 26.5413H10.22C8.015 26.5413 6.405 25.6197 5.78666 24.033C5.145 22.3763 5.74 20.323 7.28 18.9347L12.6933 13.9997L7.28 9.06467C5.74 7.67634 5.145 5.62301 5.78666 3.96634C6.405 2.36801 8.015 1.45801 10.22 1.45801H17.78C19.985 1.45801 21.595 2.37967 22.2133 3.96634C22.855 5.62301 22.26 7.67634 20.72 9.06467L15.3067 13.9997L20.7317 18.9347C22.26 20.323 22.8667 22.3763 22.225 24.033C21.595 25.6197 19.985 26.5413 17.78 26.5413ZM14 15.178L8.45833 20.218C7.47833 21.1163 7.04666 22.423 7.42 23.3913C7.77 24.2897 8.76166 24.7913 10.22 24.7913H17.78C19.2383 24.7913 20.23 24.3013 20.58 23.3913C20.9533 22.423 20.5333 21.1163 19.5417 20.218L14 15.178ZM10.22 3.20801C8.76166 3.20801 7.77 3.69801 7.42 4.60801C7.04666 5.57634 7.46666 6.88301 8.45833 7.78134L14 12.8213L19.5417 7.78134C20.5217 6.88301 20.9533 5.57634 20.58 4.60801C20.23 3.70967 19.2383 3.20801 17.78 3.20801H10.22Z" fill="#5956E9"/>
</svg>
